<svg width="21" height="21" viewBox="0 0 21 21" fill="none" xmlns="http://www.w3.org/2000/svg">
<path fill-rule="evenodd" clip-rule="evenodd" d="M1.0192 6.32274C0.5 7.27128 0.5 8.41549 0.5 10.7039V12.225C0.5 16.1258 0.5 18.0763 1.67157 19.2881C2.84315 20.5 4.72876 20.5 8.5 20.5H12.5C16.2712 20.5 18.1569 20.5 19.3284 19.2881C20.5 18.0763 20.5 16.1258 20.5 12.225V10.7039C20.5 8.41549 20.5 7.27128 19.9808 6.32274C19.4616 5.37421 18.5131 4.78551 16.616 3.60812L14.616 2.36687C12.6106 1.12229 11.6079 0.5 10.5 0.5C9.39206 0.5 8.38939 1.12229 6.38403 2.36687L4.38403 3.60813C2.48695 4.78551 1.5384 5.37421 1.0192 6.32274ZM7.5 15.75C7.08579 15.75 6.75 16.0858 6.75 16.5C6.75 16.9142 7.08579 17.25 7.5 17.25H13.5C13.9142 17.25 14.25 16.9142 14.25 16.5C14.25 16.0858 13.9142 15.75 13.5 15.75H7.5Z" fill="white"/>
</svg>
