<svg width="23" height="23" viewBox="0 0 23 23" fill="none" xmlns="http://www.w3.org/2000/svg">
<path d="M8.5 16.75C8.08579 16.75 7.75 17.0858 7.75 17.5C7.75 17.9142 8.08579 18.25 8.5 18.25H14.5C14.9142 18.25 15.25 17.9142 15.25 17.5C15.25 17.0858 14.9142 16.75 14.5 16.75H8.5Z" fill="#BABDC1"/>
<path fill-rule="evenodd" clip-rule="evenodd" d="M11.5 0.75C10.7919 0.75 10.1485 0.95282 9.45055 1.29224C8.77585 1.62035 7.99642 2.10409 7.02286 2.70832L4.95628 3.9909C4.03509 4.56261 3.29744 5.0204 2.7289 5.45581C2.14015 5.90669 1.68795 6.36589 1.36131 6.96263C1.03535 7.55812 0.888567 8.19174 0.81819 8.9407C0.749986 9.66654 0.749992 10.5541 0.75 11.6672V13.2799C0.749986 15.1837 0.749975 16.6866 0.902703 17.8616C1.05937 19.067 1.38856 20.0401 2.13236 20.8094C2.87958 21.5824 3.83046 21.9277 5.00761 22.0914C6.14849 22.25 7.60556 22.25 9.44185 22.25H13.5581C15.3944 22.25 16.8515 22.25 17.9924 22.0914C19.1695 21.9277 20.1204 21.5824 20.8676 20.8094C21.6114 20.0401 21.9406 19.067 22.0973 17.8616C22.25 16.6866 22.25 15.1838 22.25 13.2799V11.6672C22.25 10.5541 22.25 9.66652 22.1818 8.9407C22.1114 8.19174 21.9646 7.55812 21.6387 6.96263C21.3121 6.36589 20.8599 5.90669 20.2711 5.45581C19.7026 5.0204 18.9649 4.56262 18.0437 3.99091L15.9771 2.70831C15.0036 2.10409 14.2241 1.62034 13.5494 1.29224C12.8515 0.952819 12.2081 0.75 11.5 0.75ZM7.77953 4.00412C8.79529 3.37371 9.5095 2.93153 10.1065 2.6412C10.6882 2.35833 11.1002 2.25 11.5 2.25C11.8998 2.25 12.3118 2.35833 12.8935 2.64119C13.4905 2.93153 14.2047 3.37371 15.2205 4.00412L17.2205 5.24537C18.1813 5.84169 18.8559 6.26135 19.3591 6.6467C19.8487 7.02164 20.1303 7.33106 20.3229 7.68285C20.5162 8.03589 20.629 8.44865 20.6884 9.08104C20.7492 9.72859 20.75 10.5458 20.75 11.7039V13.225C20.75 15.1959 20.7485 16.6012 20.6098 17.6683C20.4736 18.7163 20.217 19.3244 19.7892 19.7669C19.3649 20.2058 18.7871 20.4664 17.7858 20.6057C16.7602 20.7483 15.4075 20.75 13.5 20.75H9.5C7.59247 20.75 6.23983 20.7483 5.21422 20.6057C4.21286 20.4664 3.63514 20.2058 3.21079 19.7669C2.78301 19.3244 2.52642 18.7163 2.39019 17.6683C2.25149 16.6012 2.25 15.1959 2.25 13.225V11.7039C2.25 10.5458 2.25076 9.72859 2.31161 9.08104C2.37103 8.44865 2.48385 8.03589 2.67709 7.68285C2.86965 7.33106 3.15133 7.02164 3.64092 6.6467C4.1441 6.26135 4.81869 5.84169 5.77953 5.24537L7.77953 4.00412Z" fill="#BABDC1"/>
</svg>
