<svg width="23" height="19" viewBox="0 0 23 19" fill="none" xmlns="http://www.w3.org/2000/svg">
<path fill-rule="evenodd" clip-rule="evenodd" d="M5.12436 1.9241C3.46537 2.68243 2.25 4.48614 2.25 6.63701C2.25 8.83441 3.14922 10.5281 4.43829 11.9797C5.50072 13.176 6.78684 14.1675 8.04113 15.1345C8.33904 15.3642 8.63515 15.5925 8.92605 15.8218C9.45208 16.2365 9.92132 16.6004 10.3736 16.8647C10.8261 17.1292 11.1904 17.2499 11.5 17.2499C11.8096 17.2499 12.1739 17.1292 12.6264 16.8647C13.0787 16.6004 13.5479 16.2365 14.074 15.8218C14.3649 15.5925 14.661 15.3642 14.9589 15.1345C16.2132 14.1675 17.4993 13.176 18.5617 11.9797C19.8508 10.5281 20.75 8.83441 20.75 6.63701C20.75 4.48614 19.5346 2.68243 17.8756 1.9241C16.2639 1.18739 14.0983 1.38249 12.0404 3.52065C11.899 3.66754 11.7039 3.75054 11.5 3.75054C11.2961 3.75054 11.101 3.66754 10.9596 3.52065C8.90166 1.38249 6.73607 1.18739 5.12436 1.9241ZM11.5 1.95873C9.18795 -0.109847 6.59896 -0.399219 4.50076 0.559872C2.28471 1.57283 0.75 3.92494 0.75 6.63701C0.75 9.30254 1.8605 11.336 3.31672 12.9757C4.48287 14.2888 5.91022 15.3879 7.17083 16.3585C7.45659 16.5785 7.73378 16.792 7.99742 16.9998C8.50965 17.4036 9.05954 17.8342 9.61682 18.1598C10.1739 18.4853 10.8096 18.7499 11.5 18.7499C12.1904 18.7499 12.8261 18.4853 13.3832 18.1598C13.9405 17.8342 14.4903 17.4036 15.0026 16.9998C15.2662 16.792 15.5434 16.5785 15.8292 16.3585C17.0898 15.3879 18.5171 14.2888 19.6833 12.9757C21.1395 11.336 22.25 9.30254 22.25 6.63701C22.25 3.92494 20.7153 1.57283 18.4992 0.559872C16.401 -0.399219 13.8121 -0.109847 11.5 1.95873Z" fill="#BABDC1"/>
</svg>
