<svg width="19" height="21" viewBox="0 0 19 21" fill="none" xmlns="http://www.w3.org/2000/svg">
<path d="M5.85179 18.7418C6.69288 19.811 8.01418 20.5 9.5 20.5C10.9858 20.5 12.3071 19.811 13.1482 18.7418C10.7264 19.07 8.27357 19.07 5.85179 18.7418Z" fill="white"/>
<path d="M16.2491 7.5V8.2041C16.2491 9.04909 16.4903 9.87517 16.9422 10.5782L18.0496 12.3012C19.0612 13.8749 18.289 16.0139 16.5296 16.5116C11.9273 17.8134 7.07274 17.8134 2.47036 16.5116C0.711046 16.0139 -0.0611765 13.8749 0.950359 12.3012L2.0578 10.5782C2.50972 9.87517 2.75087 9.04909 2.75087 8.2041V7.5C2.75087 3.63401 5.77256 0.5 9.5 0.5C13.2274 0.5 16.2491 3.63401 16.2491 7.5Z" fill="white"/>
</svg>
