<svg width="19" height="21" viewBox="0 0 19 21" fill="none" xmlns="http://www.w3.org/2000/svg">
<path d="M7 0.5C6.17157 0.5 5.5 1.17157 5.5 2V3C5.5 3.82843 6.17157 4.5 7 4.5H12C12.8284 4.5 13.5 3.82843 13.5 3V2C13.5 1.17157 12.8284 0.5 12 0.5H7Z" fill="white"/>
<path fill-rule="evenodd" clip-rule="evenodd" d="M4 2.53662C2.74209 2.60719 1.94798 2.80764 1.37868 3.37694C0.5 4.25562 0.5 5.66983 0.5 8.49826V14.4983C0.5 17.3267 0.5 18.7409 1.37868 19.6196C2.25736 20.4983 3.67157 20.4983 6.5 20.4983H12.5C15.3284 20.4983 16.7426 20.4983 17.6213 19.6196C18.5 18.7409 18.5 17.3267 18.5 14.4983V8.49826C18.5 5.66983 18.5 4.25562 17.6213 3.37694C17.052 2.80764 16.2579 2.60719 15 2.53662V3C15 4.65685 13.6569 6 12 6H7C5.34315 6 4 4.65685 4 3V2.53662ZM4.5 8.25C4.08579 8.25 3.75 8.58579 3.75 9C3.75 9.41421 4.08579 9.75 4.5 9.75H5C5.41421 9.75 5.75 9.41421 5.75 9C5.75 8.58579 5.41421 8.25 5 8.25H4.5ZM8 8.25C7.58579 8.25 7.25 8.58579 7.25 9C7.25 9.41421 7.58579 9.75 8 9.75H14.5C14.9142 9.75 15.25 9.41421 15.25 9C15.25 8.58579 14.9142 8.25 14.5 8.25H8ZM4.5 11.75C4.08579 11.75 3.75 12.0858 3.75 12.5C3.75 12.9142 4.08579 13.25 4.5 13.25H5C5.41421 13.25 5.75 12.9142 5.75 12.5C5.75 12.0858 5.41421 11.75 5 11.75H4.5ZM8 11.75C7.58579 11.75 7.25 12.0858 7.25 12.5C7.25 12.9142 7.58579 13.25 8 13.25H14.5C14.9142 13.25 15.25 12.9142 15.25 12.5C15.25 12.0858 14.9142 11.75 14.5 11.75H8ZM4.5 15.25C4.08579 15.25 3.75 15.5858 3.75 16C3.75 16.4142 4.08579 16.75 4.5 16.75H5C5.41421 16.75 5.75 16.4142 5.75 16C5.75 15.5858 5.41421 15.25 5 15.25H4.5ZM8 15.25C7.58579 15.25 7.25 15.5858 7.25 16C7.25 16.4142 7.58579 16.75 8 16.75H14.5C14.9142 16.75 15.25 16.4142 15.25 16C15.25 15.5858 14.9142 15.25 14.5 15.25H8Z" fill="white"/>
</svg>
