<svg width="21" height="23" viewBox="0 0 21 23" fill="none" xmlns="http://www.w3.org/2000/svg">
<path fill-rule="evenodd" clip-rule="evenodd" d="M5.7626 2.76045C5.88219 1.63044 6.83828 0.75 8 0.75H13C14.1617 0.75 15.1178 1.63044 15.2374 2.76045C16.0005 2.77599 16.6603 2.81546 17.2236 2.91895C17.9816 3.05818 18.6267 3.32342 19.1517 3.84835C19.7536 4.45027 20.0125 5.20814 20.1335 6.10825C20.25 6.97522 20.25 8.07754 20.25 9.44513V15.5549C20.25 16.9225 20.25 18.0248 20.1335 18.8918C20.0125 19.7919 19.7536 20.5497 19.1517 21.1517C18.5497 21.7536 17.7919 22.0125 16.8918 22.1335C16.0248 22.25 14.9225 22.25 13.5549 22.25H7.44513C6.07754 22.25 4.97522 22.25 4.10825 22.1335C3.20814 22.0125 2.45027 21.7536 1.84835 21.1517C1.24643 20.5497 0.98754 19.7919 0.866524 18.8918C0.749963 18.0248 0.74998 16.9225 0.750001 15.5549V9.44513C0.74998 8.07754 0.749963 6.97522 0.866524 6.10825C0.98754 5.20814 1.24643 4.45027 1.84835 3.84835C2.37328 3.32342 3.01835 3.05818 3.77635 2.91895C4.33973 2.81546 4.99952 2.77599 5.7626 2.76045ZM5.76496 4.26087C5.04678 4.2762 4.49336 4.31234 4.04735 4.39426C3.48054 4.49838 3.15246 4.66556 2.90901 4.90901C2.63225 5.18577 2.4518 5.57435 2.35315 6.30812C2.25159 7.06347 2.25 8.06458 2.25 9.5V15.5C2.25 16.9354 2.25159 17.9365 2.35315 18.6919C2.4518 19.4257 2.63225 19.8142 2.90901 20.091C3.18577 20.3678 3.57435 20.5482 4.30812 20.6469C5.06347 20.7484 6.06458 20.75 7.5 20.75H13.5C14.9354 20.75 15.9365 20.7484 16.6919 20.6469C17.4257 20.5482 17.8142 20.3678 18.091 20.091C18.3678 19.8142 18.5482 19.4257 18.6469 18.6919C18.7484 17.9365 18.75 16.9354 18.75 15.5V9.5C18.75 8.06458 18.7484 7.06347 18.6469 6.30812C18.5482 5.57434 18.3678 5.18577 18.091 4.90901C17.8475 4.66556 17.5195 4.49838 16.9527 4.39426C16.5066 4.31234 15.9532 4.2762 15.235 4.26087C15.1058 5.38062 14.1544 6.25 13 6.25H8C6.84559 6.25 5.89424 5.38062 5.76496 4.26087ZM8 2.25C7.58579 2.25 7.25 2.58579 7.25 3V4C7.25 4.41421 7.58579 4.75 8 4.75H13C13.4142 4.75 13.75 4.41421 13.75 4V3C13.75 2.58579 13.4142 2.25 13 2.25H8ZM4.75 10C4.75 9.58579 5.08579 9.25 5.5 9.25H6C6.41421 9.25 6.75 9.58579 6.75 10C6.75 10.4142 6.41421 10.75 6 10.75H5.5C5.08579 10.75 4.75 10.4142 4.75 10ZM8.25 10C8.25 9.58579 8.58579 9.25 9 9.25H15.5C15.9142 9.25 16.25 9.58579 16.25 10C16.25 10.4142 15.9142 10.75 15.5 10.75H9C8.58579 10.75 8.25 10.4142 8.25 10ZM4.75 13.5C4.75 13.0858 5.08579 12.75 5.5 12.75H6C6.41421 12.75 6.75 13.0858 6.75 13.5C6.75 13.9142 6.41421 14.25 6 14.25H5.5C5.08579 14.25 4.75 13.9142 4.75 13.5ZM8.25 13.5C8.25 13.0858 8.58579 12.75 9 12.75H15.5C15.9142 12.75 16.25 13.0858 16.25 13.5C16.25 13.9142 15.9142 14.25 15.5 14.25H9C8.58579 14.25 8.25 13.9142 8.25 13.5ZM4.75 17C4.75 16.5858 5.08579 16.25 5.5 16.25H6C6.41421 16.25 6.75 16.5858 6.75 17C6.75 17.4142 6.41421 17.75 6 17.75H5.5C5.08579 17.75 4.75 17.4142 4.75 17ZM8.25 17C8.25 16.5858 8.58579 16.25 9 16.25H15.5C15.9142 16.25 16.25 16.5858 16.25 17C16.25 17.4142 15.9142 17.75 15.5 17.75H9C8.58579 17.75 8.25 17.4142 8.25 17Z" fill="#BABDC1"/>
</svg>
