<svg width="23" height="23" viewBox="0 0 23 23" fill="none" xmlns="http://www.w3.org/2000/svg">
<path fill-rule="evenodd" clip-rule="evenodd" d="M7.75 8.5C7.75 6.42893 9.42893 4.75 11.5 4.75C13.5711 4.75 15.25 6.42893 15.25 8.5C15.25 10.5711 13.5711 12.25 11.5 12.25C9.42893 12.25 7.75 10.5711 7.75 8.5ZM11.5 6.25C10.2574 6.25 9.25 7.25736 9.25 8.5C9.25 9.74264 10.2574 10.75 11.5 10.75C12.7426 10.75 13.75 9.74264 13.75 8.5C13.75 7.25736 12.7426 6.25 11.5 6.25Z" fill="#BABDC1"/>
<path fill-rule="evenodd" clip-rule="evenodd" d="M0.75 11.5C0.75 5.56294 5.56294 0.75 11.5 0.75C17.4371 0.75 22.25 5.56294 22.25 11.5C22.25 17.4371 17.4371 22.25 11.5 22.25C5.56294 22.25 0.75 17.4371 0.75 11.5ZM11.5 2.25C6.39137 2.25 2.25 6.39137 2.25 11.5C2.25 14.0456 3.27827 16.351 4.9421 18.0235C5.1225 17.0504 5.47694 16.1329 6.18837 15.3951C7.25252 14.2915 8.95416 13.75 11.5 13.75C14.0457 13.75 15.7474 14.2915 16.8115 15.3951C17.523 16.1329 17.8774 17.0505 18.0578 18.0236C19.7217 16.3511 20.75 14.0456 20.75 11.5C20.75 6.39137 16.6086 2.25 11.5 2.25ZM16.6937 19.1554C16.5918 17.9435 16.3286 17.0553 15.7318 16.4363C15.0823 15.7628 13.8789 15.25 11.5 15.25C9.12099 15.25 7.91761 15.7628 7.26815 16.4363C6.67127 17.0553 6.40811 17.9434 6.30622 19.1553C7.78684 20.1618 9.57473 20.75 11.5 20.75C13.4252 20.75 15.2131 20.1618 16.6937 19.1554Z" fill="#BABDC1"/>
</svg>
