<svg width="21" height="21" viewBox="0 0 21 21" fill="none" xmlns="http://www.w3.org/2000/svg">
<path fill-rule="evenodd" clip-rule="evenodd" d="M20.5 10.5C20.5 16.0228 16.0228 20.5 10.5 20.5C4.97715 20.5 0.5 16.0228 0.5 10.5C0.5 4.97715 4.97715 0.5 10.5 0.5C16.0228 0.5 20.5 4.97715 20.5 10.5ZM13.5 7.5C13.5 9.15685 12.1569 10.5 10.5 10.5C8.84315 10.5 7.5 9.15685 7.5 7.5C7.5 5.84315 8.84315 4.5 10.5 4.5C12.1569 4.5 13.5 5.84315 13.5 7.5ZM10.5 19C12.284 19 13.9397 18.4504 15.3069 17.5112C15.9108 17.0964 16.1688 16.3062 15.8178 15.6632C15.09 14.3303 13.5902 13.5 10.4999 13.5C7.40969 13.5 5.90997 14.3302 5.18214 15.6632C4.83105 16.3062 5.0891 17.0963 5.69296 17.5111C7.06018 18.4503 8.7159 19 10.5 19Z" fill="white"/>
</svg>
