<svg width="18" height="18" viewBox="0 0 18 18" fill="none" xmlns="http://www.w3.org/2000/svg">
<path fill-rule="evenodd" clip-rule="evenodd" d="M17.3332 9.00033C17.3332 13.6027 13.6022 17.3337 8.99984 17.3337C4.39746 17.3337 0.666504 13.6027 0.666504 9.00033C0.666504 4.39795 4.39746 0.666992 8.99984 0.666992C13.6022 0.666992 17.3332 4.39795 17.3332 9.00033ZM11.4998 6.50033C11.4998 7.88104 10.3805 9.00033 8.99984 9.00033C7.61912 9.00033 6.49984 7.88104 6.49984 6.50033C6.49984 5.11961 7.61912 4.00033 8.99984 4.00033C10.3805 4.00033 11.4998 5.11961 11.4998 6.50033ZM8.99982 16.0837C10.4865 16.0837 11.8663 15.6256 13.0056 14.843C13.5088 14.4973 13.7239 13.8389 13.4313 13.303C12.8248 12.1922 11.575 11.5003 8.99978 11.5003C6.42458 11.5003 5.17481 12.1922 4.56829 13.303C4.27571 13.8388 4.49075 14.4973 4.99397 14.8429C6.13332 15.6256 7.51308 16.0837 8.99982 16.0837Z" fill="#13C296"/>
</svg>
