<svg width="18" height="14" viewBox="0 0 18 14" fill="none" xmlns="http://www.w3.org/2000/svg">
<path d="M10.6665 0.333008H7.33317C4.19047 0.333008 2.61913 0.333008 1.64281 1.30932C0.939864 2.01227 0.743043 3.02369 0.687934 4.70801H17.3117C17.2566 3.02369 17.0598 2.01227 16.3569 1.30932C15.3805 0.333008 13.8092 0.333008 10.6665 0.333008Z" fill="#13C296"/>
<path d="M7.33317 13.6663H10.6665C13.8092 13.6663 15.3805 13.6663 16.3569 12.69C17.3332 11.7137 17.3332 10.1424 17.3332 6.99967C17.3332 6.6314 17.3332 6.2847 17.3316 5.95801H0.668075C0.666504 6.2847 0.666504 6.6314 0.666504 6.99967C0.666504 10.1424 0.666504 11.7137 1.64281 12.69C2.61913 13.6663 4.19047 13.6663 7.33317 13.6663Z" fill="#13C296"/>
<path fill-rule="evenodd" clip-rule="evenodd" d="M3.37484 10.333C3.37484 9.98783 3.65466 9.70801 3.99984 9.70801H7.33317C7.67835 9.70801 7.95817 9.98783 7.95817 10.333C7.95817 10.6782 7.67835 10.958 7.33317 10.958H3.99984C3.65466 10.958 3.37484 10.6782 3.37484 10.333Z" fill="white"/>
<path fill-rule="evenodd" clip-rule="evenodd" d="M8.7915 10.333C8.7915 9.98783 9.07133 9.70801 9.4165 9.70801H10.6665C11.0117 9.70801 11.2915 9.98783 11.2915 10.333C11.2915 10.6782 11.0117 10.958 10.6665 10.958H9.4165C9.07133 10.958 8.7915 10.6782 8.7915 10.333Z" fill="white"/>
</svg>
