<svg width="18" height="14" viewBox="0 0 18 14" fill="none" xmlns="http://www.w3.org/2000/svg">
<path fill-rule="evenodd" clip-rule="evenodd" d="M7.32926 0.333008H10.6709C13.8214 0.333008 15.3967 0.333008 16.3754 1.30932C17.0493 1.98153 17.2592 2.93584 17.3246 4.4909C17.3376 4.79929 17.344 4.95349 17.2865 5.05636C17.2289 5.15924 16.999 5.28762 16.5392 5.54439C16.0285 5.82955 15.6834 6.3744 15.6834 6.99967C15.6834 7.62494 16.0285 8.16979 16.5392 8.45496C16.999 8.71173 17.2289 8.84011 17.2865 8.94299C17.344 9.04586 17.3376 9.20006 17.3246 9.50845C17.2592 11.0635 17.0493 12.0178 16.3754 12.69C15.3967 13.6663 13.8214 13.6663 10.6709 13.6663H7.32926C4.17874 13.6663 2.60347 13.6663 1.62473 12.69C0.95084 12.0178 0.740941 11.0635 0.675562 9.50845C0.662597 9.20006 0.656114 9.04586 0.713701 8.94299C0.771288 8.84011 1.00119 8.71173 1.46098 8.45496C1.97163 8.16979 2.31681 7.62494 2.31681 6.99967C2.31681 6.3744 1.97163 5.82955 1.46098 5.54439C1.00119 5.28762 0.771289 5.15924 0.713701 5.05636C0.656114 4.95349 0.662597 4.79929 0.675562 4.4909C0.740941 2.93584 0.95084 1.98153 1.62473 1.30932C2.60347 0.333008 4.17874 0.333008 7.32926 0.333008ZM11.9566 4.05773C12.2013 4.30181 12.2013 4.69754 11.9566 4.94162L6.94415 9.94162C6.69947 10.1857 6.30275 10.1857 6.05807 9.94162C5.81338 9.69754 5.81338 9.30181 6.05807 9.05773L11.0705 4.05773C11.3152 3.81365 11.7119 3.81365 11.9566 4.05773ZM11.0959 9.91634C11.5572 9.91634 11.9313 9.54325 11.9313 9.08301C11.9313 8.62277 11.5572 8.24967 11.0959 8.24967C10.6345 8.24967 10.2605 8.62277 10.2605 9.08301C10.2605 9.54325 10.6345 9.91634 11.0959 9.91634ZM6.91882 5.74967C7.3802 5.74967 7.75423 5.37658 7.75423 4.91634C7.75423 4.4561 7.3802 4.08301 6.91882 4.08301C6.45743 4.08301 6.08341 4.4561 6.08341 4.91634C6.08341 5.37658 6.45743 5.74967 6.91882 5.74967Z" fill="#FFC700"/>
</svg>
