<svg width="16" height="18" viewBox="0 0 16 18" fill="none" xmlns="http://www.w3.org/2000/svg">
<path fill-rule="evenodd" clip-rule="evenodd" d="M4.87492 4.83459L4.87492 4C4.87492 2.27411 6.27403 0.875 7.99992 0.875C9.72581 0.875 11.1249 2.27411 11.1249 4V4.83333L11.1249 4.83459C13.3619 4.84467 14.5504 4.93516 15.2171 5.74836C15.9672 6.66339 15.6905 8.0469 15.1371 10.8139L14.6371 13.3139C14.2523 15.238 14.0599 16.2 13.3687 16.7667C12.6775 17.3333 11.6964 17.3333 9.73422 17.3333H6.26559C4.3034 17.3333 3.3223 17.3333 2.63111 16.7667C1.93991 16.2 1.7475 15.238 1.36268 13.3139L0.862684 10.8139C0.309281 8.0469 0.0325788 6.66339 0.782722 5.74836C1.44939 4.93516 2.63794 4.84466 4.87492 4.83459ZM6.12492 4C6.12492 2.96447 6.96439 2.125 7.99992 2.125C9.03545 2.125 9.87492 2.96447 9.87492 4V4.83333H6.12492V4ZM10.4999 8.16667C10.9601 8.16667 11.3332 7.79357 11.3332 7.33333C11.3332 6.8731 10.9601 6.5 10.4999 6.5C10.0397 6.5 9.66657 6.8731 9.66657 7.33333C9.66657 7.79357 10.0397 8.16667 10.4999 8.16667ZM6.33323 7.33333C6.33323 7.79357 5.96014 8.16667 5.4999 8.16667C5.03966 8.16667 4.66657 7.79357 4.66657 7.33333C4.66657 6.8731 5.03966 6.5 5.4999 6.5C5.96014 6.5 6.33323 6.8731 6.33323 7.33333Z" fill="#13C296"/>
</svg>
