<svg width="16" height="18" viewBox="0 0 16 18" fill="none" xmlns="http://www.w3.org/2000/svg">
<path fill-rule="evenodd" clip-rule="evenodd" d="M4.87516 4.83459L4.87516 4C4.87516 2.27411 6.27427 0.875 8.00016 0.875C9.72605 0.875 11.1252 2.27411 11.1252 4V4.83333L11.1252 4.83459C13.3621 4.84467 14.5507 4.93516 15.2173 5.74836C15.9675 6.66339 15.6908 8.0469 15.1374 10.8139L14.6374 13.3139C14.2525 15.238 14.0601 16.2 13.3689 16.7667C12.6777 17.3333 11.6967 17.3333 9.73446 17.3333H6.26583C4.30364 17.3333 3.32255 17.3333 2.63135 16.7667C1.94015 16.2 1.74775 15.238 1.36293 13.3139L0.862928 10.8139C0.309525 8.0469 0.0328229 6.66339 0.782966 5.74836C1.44963 4.93516 2.63818 4.84466 4.87516 4.83459ZM6.12516 4C6.12516 2.96447 6.96463 2.125 8.00016 2.125C9.0357 2.125 9.87516 2.96447 9.87516 4V4.83333H6.12516V4ZM10.5001 8.16667C10.9604 8.16667 11.3335 7.79357 11.3335 7.33333C11.3335 6.8731 10.9604 6.5 10.5001 6.5C10.0399 6.5 9.66681 6.8731 9.66681 7.33333C9.66681 7.79357 10.0399 8.16667 10.5001 8.16667ZM6.33348 7.33333C6.33348 7.79357 5.96038 8.16667 5.50015 8.16667C5.03991 8.16667 4.66681 7.79357 4.66681 7.33333C4.66681 6.8731 5.03991 6.5 5.50015 6.5C5.96038 6.5 6.33348 6.8731 6.33348 7.33333Z" fill="#13C296"/>
</svg>
