<svg width="18" height="14" viewBox="0 0 18 14" fill="none" xmlns="http://www.w3.org/2000/svg">
<path d="M10.5537 1.81979C10.2923 1.79276 9.95398 1.79199 9.43998 1.79199H9.00009C8.65492 1.79199 8.37509 1.51217 8.37509 1.16699C8.37509 0.821816 8.65492 0.541992 9.00009 0.541992H9.47071H9.47073C9.94571 0.541977 10.349 0.541964 10.6822 0.576422C11.0371 0.613111 11.365 0.692778 11.6748 0.884252C11.9846 1.07573 12.2026 1.33341 12.3941 1.63439C12.5629 1.89976 12.7322 2.23391 12.928 2.62533L13.8903 2.62533C14.1268 2.62531 14.344 2.62529 14.525 2.64155C14.7205 2.65912 14.9337 2.69947 15.14 2.81732C15.3663 2.94656 15.5539 3.1341 15.6831 3.3604C15.8009 3.56673 15.8413 3.7799 15.8589 3.97547C15.8751 4.15643 15.8751 4.3736 15.8751 4.61011V4.61014V4.63426L15.8752 4.68804C15.8757 4.90451 15.8762 5.13628 15.8059 5.35625C15.7589 5.50359 15.6887 5.64251 15.598 5.76779C15.4625 5.95482 15.2756 6.09186 15.101 6.21985L15.0577 6.25168L14.8264 6.42207L15.2323 7.23388C16.7698 7.42976 17.9584 8.74291 17.9584 10.3337C17.9584 12.0596 16.5593 13.4587 14.8334 13.4587C13.3216 13.4587 12.0605 12.3851 11.7709 10.9587H7.47925C7.18971 12.3851 5.92861 13.4587 4.41676 13.4587C2.90228 13.4587 1.63943 12.3813 1.35277 10.9512C0.653184 10.8804 0.101673 10.3189 0.0462565 9.61475C0.0416804 9.5566 0.0417182 9.49367 0.0417545 9.43303L0.041761 9.41699L0.0417597 9.38525C0.0417431 9.10604 0.0417325 8.9285 0.0539632 8.77309C0.206729 6.83202 1.74845 5.29029 3.68953 5.13753C3.84493 5.1253 4.02247 5.12531 4.30167 5.12533L4.33343 5.12533L4.87676 5.12533H4.87676C5.62549 5.1253 6.24984 5.12528 6.74549 5.19192C7.26866 5.26226 7.74099 5.41698 8.12055 5.79654C8.5001 6.1761 8.65483 6.64843 8.72517 7.17159C8.79181 7.66725 8.79179 8.2916 8.79176 9.04033L8.79176 9.70866H11.7709C11.9978 8.5911 12.821 7.6901 13.894 7.35233L11.8624 3.28912C11.6325 2.82938 11.4805 2.52716 11.3395 2.30543C11.2061 2.09591 11.1106 2.00501 11.0177 1.94757C10.9247 1.89012 10.8007 1.84533 10.5537 1.81979Z" fill="#13C296"/>
</svg>
