<svg width="18" height="18" viewBox="0 0 18 18" fill="none" xmlns="http://www.w3.org/2000/svg">
<path fill-rule="evenodd" clip-rule="evenodd" d="M17.3334 9.00033C17.3334 13.6027 13.6025 17.3337 9.00008 17.3337C4.39771 17.3337 0.666748 13.6027 0.666748 9.00033C0.666748 4.39795 4.39771 0.666992 9.00008 0.666992C13.6025 0.666992 17.3334 4.39795 17.3334 9.00033ZM12.3587 6.47505C12.6028 6.71913 12.6028 7.11486 12.3587 7.35893L8.19202 11.5256C7.94795 11.7697 7.55222 11.7697 7.30814 11.5256L5.64147 9.85893C5.3974 9.61486 5.3974 9.21913 5.64147 8.97505C5.88555 8.73097 6.28128 8.73097 6.52536 8.97505L7.75008 10.1998L9.61244 8.33741L11.4748 6.47505C11.7189 6.23097 12.1146 6.23097 12.3587 6.47505Z" fill="#13C296"/>
</svg>
