<svg width="18" height="18" viewBox="0 0 18 18" fill="none" xmlns="http://www.w3.org/2000/svg">
<path fill-rule="evenodd" clip-rule="evenodd" d="M17.3334 9.00033C17.3334 13.6027 13.6025 17.3337 9.00008 17.3337C4.39771 17.3337 0.666748 13.6027 0.666748 9.00033C0.666748 4.39795 4.39771 0.666992 9.00008 0.666992C13.6025 0.666992 17.3334 4.39795 17.3334 9.00033ZM6.47477 6.47503C6.71885 6.23096 7.11458 6.23096 7.35865 6.47503L9.00006 8.11643L10.6414 6.47505C10.8855 6.23097 11.2812 6.23097 11.5253 6.47505C11.7694 6.71913 11.7694 7.11486 11.5253 7.35893L9.88394 9.00032L11.5253 10.6417C11.7694 10.8858 11.7694 11.2815 11.5253 11.5256C11.2812 11.7696 10.8855 11.7696 10.6414 11.5256L9.00006 9.8842L7.35867 11.5256C7.11459 11.7697 6.71887 11.7697 6.47479 11.5256C6.23071 11.2815 6.23071 10.8858 6.47479 10.6417L8.11617 9.00032L6.47477 7.35892C6.23069 7.11484 6.23069 6.71911 6.47477 6.47503Z" fill="#FF6347"/>
</svg>
