<svg width="22" height="22" viewBox="0 0 22 22" fill="none" xmlns="http://www.w3.org/2000/svg">
<path d="M10.3501 17.6747L10.3502 17.6746L18.3624 9.66245C17.2719 9.20859 15.9804 8.46307 14.7589 7.24159C13.5372 6.01992 12.7916 4.72815 12.3378 3.63758L4.32547 11.6499L4.3254 11.65C3.7002 12.2752 3.38757 12.5878 3.11872 12.9325C2.80156 13.3391 2.52964 13.7791 2.30778 14.2446C2.11971 14.6393 1.9799 15.0587 1.70027 15.8976L0.225734 20.3212C0.0881282 20.734 0.19557 21.1891 0.503265 21.4968C0.81096 21.8045 1.26609 21.912 1.67891 21.7744L6.10253 20.2998C6.94139 20.0202 7.36084 19.8804 7.75547 19.6923C8.221 19.4705 8.66096 19.1985 9.06759 18.8814C9.41228 18.6125 9.72494 18.2999 10.3501 17.6747Z" fill="white"/>
<path d="M20.5857 7.43916C22.2493 5.77548 22.2493 3.07813 20.5857 1.41445C18.922 -0.249233 16.2246 -0.249233 14.5609 1.41445L13.6 2.3754C13.6131 2.41514 13.6268 2.45543 13.6409 2.49624C13.9932 3.51147 14.6577 4.84236 15.9079 6.09254C17.1581 7.34272 18.489 8.0073 19.5042 8.35952C19.5448 8.37361 19.585 8.3872 19.6245 8.4003L20.5857 7.43916Z" fill="white"/>
</svg>
